<svg height="512pt" viewBox="0 0 512.001 512" width="512pt" xmlns="http://www.w3.org/2000/svg"><path d="m512 34.964844c0-4.890625-2.386719-9.476563-6.394531-12.28125-27.179688-19.046875-56.285157-19.296875-88.984375-.769532-16.039063 9.089844-32.671875 10.191407-50.621094 3.324219v-10.238281c0-8.285156-6.714844-15-15-15s-15 6.714844-15 15v215h30v-86.523438c6.347656 1.875 12.808594 2.816407 19.414062 2.816407 14.578126 0 29.835938-4.570313 45.964844-13.707031 18.464844-10.460938 37.714844-10.351563 58.851563.335937 4.652343 2.351563 10.1875 2.121094 14.625-.609375 4.007812-2.464844 6.59375-6.648438 7.0625-11.273438.003906-.03125.003906-.0625.007812-.09375.042969-.46875.074219-.9375.074219-1.410156v-.050781c0-.007813 0-.015625 0-.023437zm0 0"/><path d="m450.007812 260-145-.082031s-.003906 0-.007812 0c-3.976562 0-7.789062 1.578125-10.601562 4.390625-2.816407 2.8125-4.398438 6.632812-4.398438 10.609375v52.082031h-130c-8.285156 0-15 6.714844-15 15v52h-130c-8.285156 0-15 6.714844-15 15v88c0 8.285156 6.714844 15 15 15h435c8.285156 0 15-6.714844 15-15v-222c0-8.28125-6.710938-14.996094-14.992188-15zm0 0"/></svg>