<svg xmlns="http://www.w3.org/2000/svg" height="600pt" version="1.1" viewBox="-120 0 600 600" width="600pt">
<g id="surface1">
<path d="M 330 0 L 30 0 C 13.433594 0 0 13.433594 0 30 L 0 570 C 0 586.566406 13.433594 600 30 600 L 330 600 C 346.566406 600 360 586.566406 360 570 L 360 30 C 360 13.433594 346.566406 0 330 0 Z M 133.871094 580 L 144.929688 546.839844 C 146.289062 542.757812 150.109375 540.003906 154.410156 540 L 205.589844 540 C 209.890625 540.003906 213.710938 542.757812 215.070312 546.839844 L 226.128906 580 Z M 340 570 C 340 575.523438 335.523438 580 330 580 L 247.210938 580 L 234.046875 540.507812 C 229.964844 528.261719 218.5 520 205.589844 520 L 154.410156 520 C 141.519531 520.019531 130.078125 528.277344 126 540.507812 L 112.789062 580 L 30 580 C 24.476562 580 20 575.523438 20 570 L 20 30 C 20 24.476562 24.476562 20 30 20 L 330 20 C 335.523438 20 340 24.476562 340 30 Z M 340 570 " style=" stroke:none;fill-rule:nonzero;fill:rgb(0%,0%,0%);fill-opacity:1;" />
<path d="M 290 40 L 70 40 C 53.433594 40 40 53.433594 40 70 L 40 290 C 40 306.566406 53.433594 320 70 320 L 290 320 C 306.566406 320 320 306.566406 320 290 L 320 70 C 320 53.433594 306.566406 40 290 40 Z M 300 290 C 300 295.523438 295.523438 300 290 300 L 70 300 C 64.476562 300 60 295.523438 60 290 L 60 70 C 60 64.476562 64.476562 60 70 60 L 290 60 C 295.523438 60 300 64.476562 300 70 Z M 300 290 " style=" stroke:none;fill-rule:nonzero;fill:rgb(0%,0%,0%);fill-opacity:1;" />
<path d="M 180 390 C 163.433594 390 150 403.433594 150 420 C 150 436.566406 163.433594 450 180 450 C 196.566406 450 210 436.566406 210 420 C 210 403.433594 196.566406 390 180 390 Z M 180 430 C 174.476562 430 170 425.523438 170 420 C 170 414.476562 174.476562 410 180 410 C 185.523438 410 190 414.476562 190 420 C 190 425.523438 185.523438 430 180 430 Z M 180 430 " style=" stroke:none;fill-rule:nonzero;fill:rgb(0%,0%,0%);fill-opacity:1;" />
</g>
</svg>