<svg id="Capa_1" enable-background="new 0 0 524.243 524.243" height="512" viewBox="0 0 524.243 524.243" width="512" xmlns="http://www.w3.org/2000/svg"><path d="m390.37 19.193c25.591 25.591 25.591 67.082 0 92.673s-67.082 25.591-92.673 0-25.591-67.082 0-92.673c25.591-25.591 67.082-25.591 92.673 0"/><path d="m505.045 133.87c25.591 25.591 25.591 67.082 0 92.673s-67.082 25.591-92.673 0-25.591-67.082 0-92.673 67.082-25.591 92.673 0"/><path d="m401.724 285.491c-6.255-4.288-10.095-9.855-11.423-16.558-7.679-39.052-31.725-71.209-67.721-90.535-20.342-10.913-43.374-15.658-66.175-14.661l198.64 198.64c-7.38-30.726-25.788-58.053-53.321-76.886z"/><path d="m245.739 65.529c0-36.14-29.389-65.529-65.529-65.529-23.72 0-44.338 12.783-55.84 31.703l89.667 89.667c18.92-11.503 31.702-32.121 31.702-55.841z"/><path d="m.004 46.331 68.661 68.661c-1.06-.052-2.06-.316-3.132-.316-36.14 0-65.529 29.389-65.529 65.529s29.389 65.529 65.529 65.529 65.529-29.389 65.529-65.529c0-1.072-.264-2.072-.316-3.132l32.907 32.907c-14.695 16.652-25.271 36.376-29.711 58.952-1.328 6.703-5.167 12.271-11.423 16.558-43.435 29.71-64.377 80.505-54.666 132.58 9.455 50.683 49.755 92.119 100.294 103.094 9.503 2.048 19.022 3.072 28.445 3.072 18.638 0 36.94-3.984 53.995-11.855 7.231-3.328 15.854-3.328 23.054 0 25.709 11.871 54.219 14.911 82.472 8.767 29.207-6.335 54.589-23.166 72.891-45.818l48.905 48.905 46.331-46.331-477.904-477.903z"/></svg>