<svg id="Capa_1" enable-background="new 0 0 524.235 524.235" height="512" viewBox="0 0 524.235 524.235" width="512" xmlns="http://www.w3.org/2000/svg"><path d="m484.217 229.352c1.612-43.482 40.018-61.534 40.018-107.653 0-46.121-17.286-65.783-40.018-88.935.7 43.944-58.276 78.638-58.276 117.49 0 49.513 31.609 63.568 58.276 79.098z"/><path d="m399.246 131.058c1.074-28.981 26.669-41.014 26.669-71.755s-11.521-43.848-26.669-59.278c.468 29.289-38.834 52.415-38.834 78.31 0 33.004 21.064 42.371 38.834 52.723z"/><path d="m458.706 366.043 27.133 27.133h38.396v-131.059h-65.529z"/><path d="m425.941 262.117h-71.161l71.161 71.161z"/><path d="m0 46.331 215.786 215.786h-215.786v131.059h346.844l131.059 131.059 46.331-46.331-477.903-477.903z"/></svg>