<svg height="512pt" viewBox="0 0 512 512.00001" width="512pt" xmlns="http://www.w3.org/2000/svg"><path d="m503.464844 17.066406c4.714844 0 8.535156-3.820312 8.535156-8.53125 0-4.714844-3.820312-8.535156-8.535156-8.535156h-220.546875c-8.453125-.0078125-16.609375 3.132812-22.875 8.804688l-245.96875 222.160156c-8.953125 8.09375-14.0664065 19.597656-14.074219 31.667968v27.5c0 4.714844 3.820312 8.535157 8.535156 8.535157 4.710938 0 8.53125-3.820313 8.53125-8.535157v-27.5c.007813-7.242187 3.074219-14.140624 8.441406-19l34.226563-30.914062v196.882812h-51.199219c-4.714844 0-8.535156 3.820313-8.535156 8.53125 0 4.714844 3.820312 8.535157 8.535156 8.535157h8.53125v68.265625c.027344 9.414062 7.652344 17.039062 17.066406 17.066406h460.800782c9.414062-.027344 17.039062-7.652344 17.066406-17.066406v-324.265625c-.027344-9.414063-7.652344-17.039063-17.066406-17.066407h-51.199219v-136.535156zm-349.863282 307.199219h-51.203124c-4.710938 0-8.53125 3.820313-8.53125 8.535156 0 4.710938 3.820312 8.53125 8.53125 8.53125h8.535156v59.734375c-.015625 4.707032-3.828125 8.519532-8.535156 8.535156h-25.597657v-212.296874l76.800781-69.363282zm93.863282-85.332031h-51.199219c-4.710937 0-8.53125 3.820312-8.53125 8.53125 0 4.714844 3.820313 8.535156 8.53125 8.535156h8.535156v59.734375c-.015625 4.707031-3.828125 8.519531-8.535156 8.53125h-25.597656v-211.742187l76.796875-69.363282zm110.933594-221.867188h68.269531v136.535156h-68.269531zm-5.117188 294.316406c2.789062-21.050781 11.386719-40.910156 24.832031-57.34375 10.054688 18.695313 14.722657 39.816407 13.480469 61.011719-.238281 3.015625-.695312 6.011719-1.363281 8.960938-5.316407 9.609375-9.222657 19.9375-11.59375 30.664062-.097657.308594-.179688.625-.238281.945313-.167969.546875-.289063 1.105468-.371094 1.667968-1.359375 5.984376-2.273438 12.058594-2.730469 18.175782h-8.191406c-1.332031-17.371094-6.089844-34.308594-13.996094-49.832032-.375-4.746093-.316406-9.515624.171875-14.25zm-88.746094-283.640624 6.949219-6.277344c3.132813-2.835938 7.207031-4.402344 11.433594-4.398438h58.414062v136.535156h-51.199219c-4.710937 0-8.53125 3.820313-8.53125 8.53125 0 4.714844 3.820313 8.535157 8.53125 8.535157h8.535157v59.730469c-.015625 4.707031-3.828125 8.519531-8.535157 8.535156h-25.597656zm17.832032 261.625c7.941406 2.6875 15.578124 6.207031 22.785156 10.496093 9.195312 5.277344 17.371094 12.152344 24.148437 20.308594 11.421875 15.253906 18.445313 33.34375 20.308594 52.308594-18.136719-5.792969-34.339844-16.449219-46.847656-30.804688-11.402344-15.273437-18.453125-33.351562-20.394531-52.308593zm127.234374 188.5c-.027343 9.414062-7.652343 17.039062-17.066406 17.066406h-52.226562c-9-.585938-16.011719-8.046875-16.042969-17.066406v-51.199219h85.335937zm17.066407-68.265626h-119.46875v-17.066406h119.46875zm33.363281-120.234374c-1.859375 18.976562-8.917969 37.078124-20.394531 52.308593-12.546875 14.351563-28.773438 25.003907-46.933594 30.804688.5-4.304688 1.242187-8.578125 2.21875-12.800781.855469-3.667969 1.964844-7.59375 3.328125-11.691407l7.851562-17.664062 6.996094-10.152344c12.570313-14.324219 28.792969-24.972656 46.933594-30.804687zm0 0"/><path d="m349.867188 486.398438h34.132812c4.710938 0 8.535156-3.820313 8.535156-8.53125 0-4.714844-3.824218-8.535157-8.535156-8.535157h-34.132812c-4.714844 0-8.535157 3.820313-8.535157 8.535157 0 4.710937 3.820313 8.53125 8.535157 8.53125zm0 0"/></svg>