<svg height="512pt" viewBox="0 -53 512.001 512" width="512pt" xmlns="http://www.w3.org/2000/svg"><path d="m212.257812 30.035156h-36.828124v140.035156l-54.929688-31.257812-54.929688 31.253906v-140.03125h-65.570312v307.632813h212.257812c10.4375 0 20.242188 2.746093 28.742188 7.539062v-286.429687c0-15.847656-12.894531-28.742188-28.742188-28.742188zm0 0"/><path d="m271 396.410156v8.785156h241v-37.527343h-212.257812c-15.847657 0-28.742188 12.890625-28.742188 28.742187zm0 0"/><path d="m212.257812 367.667969h-212.257812v37.527343h241v-8.785156c0-15.851562-12.894531-28.742187-28.742188-28.742187zm0 0"/><path d="m299.742188 30.035156c-15.847657 0-28.742188 12.894532-28.742188 28.742188v286.429687c8.503906-4.792969 18.304688-7.539062 28.742188-7.539062h212.257812v-307.632813zm176.625 258.882813h-169.761719v-30h169.761719zm0-60.046875h-169.761719v-29.996094h169.761719zm0-60.042969h-169.761719v-30h169.761719zm0-60.046875h-169.761719v-29.996094h169.761719zm0 0"/><path d="m95.570312 118.484375 24.929688-14.1875 24.929688 14.1875v-118.484375h-49.859376zm0 0"/></svg>