<svg height="512pt" viewBox="0 0 512 512.00292" width="512pt" xmlns="http://www.w3.org/2000/svg"><path d="m317.003906 0c-107.519531 0-195 87.480469-195 195s87.480469 195 195 195c107.519532 0 195-87.480469 195-195s-87.480468-195-195-195zm0 330c-74.445312 0-135-60.558594-135-135s60.554688-135 135-135c74.441406 0 135 60.558594 135 135s-60.558594 135-135 135zm0 0"/><path d="m317.003906 90c-57.890625 0-105 47.109375-105 105s47.109375 105 105 105 105-47.109375 105-105-47.109375-105-105-105zm-15 171.210938-55.605468-55.605469 21.210937-21.210938 34.394531 34.394531 64.394532-64.394531 21.210937 21.210938zm0 0"/><path d="m63.632812 512.003906-63.632812-63.632812 47.578125-47.578125 63.632813 63.632812zm0 0"/><path d="m193.042969 382.59375c-25.234375-16.734375-46.898438-38.398438-63.632813-63.632812l-60.617187 60.617187 63.632812 63.632813zm0 0"/></svg>