<svg id="Group_81" data-name="Group 81" xmlns="http://www.w3.org/2000/svg" width="224.07" height="42.146" viewBox="0 0 224.07 42.146">
  <g id="Group_78" data-name="Group 78" transform="translate(0.053)">
    <path id="Path_34" data-name="Path 34" d="M-582.991,592.442c-2.107-4.214-2.845-7.2-5.865-7.2-1.861,0-3.512,1.405-3.512,4.039,0,1.58.878,3.372,3.407,4.39,3.512,1.4,7.551,3.688,7.551,8.253,0,5.268-4.144,7.726-8.85,7.726a17.138,17.138,0,0,1-7.481-1.756l-.352-6.849h.527c1.581,4.741,3.266,7.726,6.6,7.726,2.493,0,4.109-1.58,4.109-4.39,0-2.458-1.65-4.144-4.284-5.268-3.547-1.51-6.954-3.442-6.954-7.726,0-4.5,3.688-7.024,8.5-7.024a15.233,15.233,0,0,1,6.778,1.58l.352,6.5Z" transform="translate(598.093 -582.258)" fill="#3498db"/>
    <path id="Path_35" data-name="Path 35" d="M-550.012,606.972c0,2.283.351,3.161,2.107,3.161a10.775,10.775,0,0,0,2.81-.527v.351a10.307,10.307,0,0,1-5.97,2.107c-2.458,0-4.566-1.229-4.566-4.215V595.207h-1.4v-.878l1.4-.176,5.268-5.268h.352v5.268h4.214v1.054h-4.214Z" transform="translate(576.177 -584.67)" fill="#3498db"/>
    <path id="Path_36" data-name="Path 36" d="M-522.189,603.9c0,2.282,0,2.282,2.107,2.282v.7h-9.833v-.7c2.107,0,2.107,0,2.107-2.282V592.839c0-1.756,0-1.756-1.756-1.756v-.527l7.095-1.58h.281ZM-525,579.845a3.283,3.283,0,0,1,3.267,3.266A3.253,3.253,0,0,1-525,586.342a3.222,3.222,0,0,1-3.23-3.231A3.252,3.252,0,0,1-525,579.845Z" transform="translate(561.7 -579.845)" fill="#3498db"/>
    <path id="Path_37" data-name="Path 37" d="M-493.97,604.348a1.93,1.93,0,0,0-2.107-2.107,5.583,5.583,0,0,0-3.512,1.58v10.536c0,2.282,0,2.282,2.107,2.282v.7h-9.834v-.7c2.107,0,2.107,0,2.107-2.282V603.294c0-1.756,0-1.756-1.756-1.756v-.527l7.2-1.58h.281l-.105,3.688h.07a7.547,7.547,0,0,1,6.427-3.688c2.353,0,4.741,1.405,4.741,5.268v9.658c0,2.282,0,2.282,2.107,2.282v.7h-9.131v-.7c1.4,0,1.4,0,1.4-2.282Z" transform="translate(549.636 -590.3)" fill="#3498db"/>
    <path id="Path_38" data-name="Path 38" d="M-448.465,605.4c-1.4-3.863-2.458-5.268-4.566-5.268a2.255,2.255,0,0,0-2.283,2.458,3.261,3.261,0,0,0,2.283,2.986c4.566,1.932,6.146,3.336,6.146,6.5,0,3.337-2.985,5.619-7.024,5.619a14.488,14.488,0,0,1-5.62-1.229l-.351-5.093h.527c1.054,4.039,2.458,5.619,4.566,5.619a2.536,2.536,0,0,0,2.634-2.809c0-.878-.632-2.6-3.161-3.688-3.512-1.51-4.917-2.985-4.917-5.971,0-2.809,2.107-5.092,6.673-5.092a13.841,13.841,0,0,1,5.268,1.089l.351,4.882Z" transform="translate(524.502 -590.3)" fill="#3498db"/>
    <path id="Path_39" data-name="Path 39" d="M-418.869,599.431a8.824,8.824,0,0,1,8.991,9.131,9.219,9.219,0,0,1-9.307,9.131,8.754,8.754,0,0,1-8.956-9.131A9.145,9.145,0,0,1-418.869,599.431Zm-.14,17.56c2.212,0,3.16-3.16,3.16-8.428s-.948-8.429-3.16-8.429-3.161,3.161-3.161,8.429S-421.222,616.991-419.009,616.991Z" transform="translate(507.374 -590.3)" fill="#3498db"/>
    <path id="Path_40" data-name="Path 40" d="M-372.529,604.348a1.929,1.929,0,0,0-2.107-2.107,5.581,5.581,0,0,0-3.512,1.58v10.536c0,2.282,0,2.282,2.107,2.282v.7h-9.833v-.7c2.107,0,2.107,0,2.107-2.282V603.294c0-1.756,0-1.756-1.756-1.756v-.527l7.2-1.58h.281l-.1,3.688h.07a7.548,7.548,0,0,1,6.427-3.688c2.353,0,4.741,1.405,4.741,5.268v9.658c0,2.282,0,2.282,2.107,2.282v.7h-9.131v-.7c1.4,0,1.4,0,1.4-2.282Z" transform="translate(484.811 -590.3)" fill="#3498db"/>
    <path id="Path_41" data-name="Path 41" d="M-310.55,585.118c5.269,0,8.078,2.458,8.078,5.971,0,2.809-2.107,4.917-4.917,5.689v.07c4.39,1.089,5.971,3.653,5.971,6.357,0,3.863-2.809,6.5-8.077,6.5h-11.59V609c2.107,0,2.107,0,2.107-2.282V588.1c0-2.283,0-2.283-2.107-2.283v-.7Zm-2.107,11.59c3.161,0,4.39-2.107,4.39-5.444,0-2.985-1.229-5.443-3.337-5.443h-1.756v10.887Zm-.7.7V609h2.458c2.81,0,3.688-2.809,3.688-5.97s-1.58-5.619-4.741-5.619Z" transform="translate(450.227 -582.66)" fill="#3498db"/>
    <path id="Path_42" data-name="Path 42" d="M-275.885,608.738a9.234,9.234,0,0,1,9.307-9.307c4.039,0,7.691,1.756,6.638,7.726h-10.4c0,4.741,2.7,6.5,5.338,6.5a5.62,5.62,0,0,0,5.268-2.985h.352c-.7,3.512-3.161,7.024-7.551,7.024C-272.725,617.694-275.885,613.479-275.885,608.738Zm5.549-2.282h5.163c.6-2.388,1.089-6.322-1.58-6.322C-268.756,600.134-270.2,601.995-270.336,606.455Z" transform="translate(426.099 -590.3)" fill="#3498db"/>
    <path id="Path_43" data-name="Path 43" d="M-223.818,612.952c-.07,2.81,1.405,2.459,2.459,2.283v.351c-1.756,1.4-2.809,2.107-4.917,2.107-2.458,0-3.161-1.4-3.161-2.81h-.07c-1.931,2-2.739,2.81-4.847,2.81a4.052,4.052,0,0,1-3.863-4.214c0-2.177,1.791-3.582,4.566-4.039l4.319-.7.071-3.687c.07-2.81-.527-4.214-2.635-4.214-3.512,0-2.529,3.336-1.58,4.214,1.475,1.37-3.477,2.95-4.039,1.756-1.019-2.213,2.809-7.375,8.077-7.375,3.512,0,5.865,1.756,5.794,4.741Zm-5.549-3.512-1.4.316c-1.545.351-2.037,1.58-1.827,3.02.106.7.633,1.932,1.581,1.932a2.207,2.207,0,0,0,1.58-.7Z" transform="translate(405.992 -590.3)" fill="#3498db"/>
    <path id="Path_44" data-name="Path 44" d="M-189.662,613.655a5.62,5.62,0,0,0,5.268-2.985h.352c-.7,3.512-3.161,7.024-7.551,7.024-5.8,0-8.956-4.214-8.956-8.956a9.234,9.234,0,0,1,9.307-9.307c4.39,0,6.708,2.143,6.708,4.39,0,1.229-.562,2.458-2.669,2.458-1.756,0-2.142-1.089-2.107-1.826.176-2.564,0-4.32-2.107-4.32-2.458,0-3.582,3.266-3.582,7.34C-195,612.074-192.3,613.655-189.662,613.655Z" transform="translate(385.885 -590.3)" fill="#3498db"/>
    <path id="Path_45" data-name="Path 45" d="M-149.535,593.893a1.93,1.93,0,0,0-2.107-2.107,5.582,5.582,0,0,0-3.512,1.58V603.9c0,2.282,0,2.282,2.107,2.282v.7h-9.833v-.7c2.107,0,2.107,0,2.107-2.282V583.708c0-1.756,0-1.756-1.756-1.756v-.527l7.094-1.581h.281v12.819h.07a7.548,7.548,0,0,1,6.427-3.688c2.353,0,4.741,1.405,4.741,5.268V603.9c0,2.282,0,2.282,2.107,2.282v.7h-9.131v-.7c1.4,0,1.4,0,1.4-2.282Z" transform="translate(365.778 -579.845)" fill="#3498db"/>
  </g>
  <g id="Group_79" data-name="Group 79" transform="translate(0 33.279)">
    <path id="Path_46" data-name="Path 46" d="M-598.206,660.116v-8.575h2.779a10.067,10.067,0,0,1,2.059.129,2.25,2.25,0,0,1,1.234.839,2.663,2.663,0,0,1,.5,1.67,2.8,2.8,0,0,1-.286,1.328,2.357,2.357,0,0,1-.728.845,2.512,2.512,0,0,1-.9.406,9.909,9.909,0,0,1-1.8.123h-1.129v3.234Zm1.731-7.124v2.433h.948a4.465,4.465,0,0,0,1.368-.135,1.134,1.134,0,0,0,.541-.421,1.149,1.149,0,0,0,.2-.667,1.108,1.108,0,0,0-.275-.772,1.2,1.2,0,0,0-.7-.38,8.373,8.373,0,0,0-1.246-.058Z" transform="translate(598.206 -651.395)" fill="#3498db"/>
    <path id="Path_47" data-name="Path 47" d="M-572.832,660.116v-8.575h3.644a6.229,6.229,0,0,1,2,.231,1.968,1.968,0,0,1,1,.822,2.47,2.47,0,0,1,.374,1.351,2.289,2.289,0,0,1-.567,1.594,2.726,2.726,0,0,1-1.7.793,4.033,4.033,0,0,1,.927.719,9.8,9.8,0,0,1,.986,1.392l1.047,1.673h-2.071l-1.251-1.866a12.259,12.259,0,0,0-.912-1.261,1.33,1.33,0,0,0-.521-.357,2.846,2.846,0,0,0-.871-.1h-.351v3.579Zm1.732-4.948h1.281a6.594,6.594,0,0,0,1.556-.105.93.93,0,0,0,.486-.363,1.119,1.119,0,0,0,.175-.643,1.027,1.027,0,0,0-.231-.7,1.057,1.057,0,0,0-.652-.336q-.21-.029-1.263-.029H-571.1Z" transform="translate(584.661 -651.395)" fill="#3498db"/>
    <path id="Path_48" data-name="Path 48" d="M-546.819,655.714a5.451,5.451,0,0,1,.392-2.2,4.039,4.039,0,0,1,.8-1.176,3.344,3.344,0,0,1,1.109-.772,4.707,4.707,0,0,1,1.848-.339,4.027,4.027,0,0,1,3.033,1.176,4.506,4.506,0,0,1,1.138,3.27,4.492,4.492,0,0,1-1.129,3.249,4,4,0,0,1-3.018,1.173,4.035,4.035,0,0,1-3.041-1.167A4.429,4.429,0,0,1-546.819,655.714Zm1.784-.059a3.213,3.213,0,0,0,.673,2.208,2.192,2.192,0,0,0,1.708.752,2.173,2.173,0,0,0,1.7-.746,3.276,3.276,0,0,0,.664-2.237,3.226,3.226,0,0,0-.646-2.2,2.188,2.188,0,0,0-1.717-.725,2.2,2.2,0,0,0-1.725.734A3.24,3.24,0,0,0-545.035,655.655Z" transform="translate(570.776 -651.227)" fill="#3498db"/>
    <path id="Path_49" data-name="Path 49" d="M-517.857,660.116v-8.575h2.779a10.067,10.067,0,0,1,2.059.129,2.25,2.25,0,0,1,1.234.839,2.666,2.666,0,0,1,.5,1.67,2.8,2.8,0,0,1-.286,1.328,2.353,2.353,0,0,1-.729.845,2.508,2.508,0,0,1-.9.406,9.9,9.9,0,0,1-1.8.123h-1.129v3.234Zm1.732-7.124v2.433h.948a4.467,4.467,0,0,0,1.369-.135,1.134,1.134,0,0,0,.541-.421,1.152,1.152,0,0,0,.2-.667,1.108,1.108,0,0,0-.275-.772,1.2,1.2,0,0,0-.7-.38,8.379,8.379,0,0,0-1.246-.058Z" transform="translate(555.316 -651.395)" fill="#3498db"/>
    <path id="Path_50" data-name="Path 50" d="M-492.5,660.116v-8.575h6.359v1.451h-4.627v1.9h4.305v1.445h-4.305v2.334h4.791v1.445Z" transform="translate(541.778 -651.395)" fill="#3498db"/>
    <path id="Path_51" data-name="Path 51" d="M-467.122,660.116v-8.575h3.644a6.229,6.229,0,0,1,2,.231,1.969,1.969,0,0,1,1,.822,2.47,2.47,0,0,1,.374,1.351,2.29,2.29,0,0,1-.567,1.594,2.726,2.726,0,0,1-1.7.793,4.033,4.033,0,0,1,.927.719,9.764,9.764,0,0,1,.986,1.392l1.047,1.673h-2.071l-1.251-1.866a12.269,12.269,0,0,0-.912-1.261,1.331,1.331,0,0,0-.521-.357,2.847,2.847,0,0,0-.871-.1h-.351v3.579Zm1.731-4.948h1.281a6.594,6.594,0,0,0,1.556-.105.931.931,0,0,0,.486-.363,1.118,1.118,0,0,0,.175-.643,1.027,1.027,0,0,0-.231-.7,1.057,1.057,0,0,0-.652-.336q-.21-.029-1.263-.029h-1.352Z" transform="translate(528.234 -651.395)" fill="#3498db"/>
    <path id="Path_52" data-name="Path 52" d="M-439.128,660.116v-7.124h-2.545v-1.451h6.814v1.451H-437.4v7.124Z" transform="translate(514.649 -651.395)" fill="#3498db"/>
    <path id="Path_53" data-name="Path 53" d="M-415.2,660.116v-3.609l-3.141-4.966h2.03l2.018,3.393,1.978-3.393h1.994l-3.153,4.978v3.6Z" transform="translate(502.196 -651.395)" fill="#3498db"/>
    <path id="Path_54" data-name="Path 54" d="M-376.229,660.116v-8.575h2.591l1.556,5.849,1.538-5.849h2.6v8.575h-1.609v-6.75l-1.7,6.75h-1.667l-1.7-6.75v6.75Z" transform="translate(479.715 -651.395)" fill="#3498db"/>
    <path id="Path_55" data-name="Path 55" d="M-339.817,660.116H-341.7l-.749-1.948h-3.427l-.708,1.948h-1.836l3.34-8.575h1.83ZM-343,656.724l-1.181-3.182-1.159,3.182Z" transform="translate(464.871 -651.395)" fill="#3498db"/>
    <path id="Path_56" data-name="Path 56" d="M-319.735,660.116v-8.575h1.684l3.51,5.726v-5.726h1.608v8.575h-1.738l-3.457-5.592v5.592Z" transform="translate(449.559 -651.395)" fill="#3498db"/>
    <path id="Path_57" data-name="Path 57" d="M-286.26,660.116h-1.883l-.749-1.948h-3.428l-.708,1.948h-1.837l3.34-8.575h1.831Zm-3.188-3.392-1.181-3.182-1.158,3.182Z" transform="translate(436.283 -651.395)" fill="#3498db"/>
    <path id="Path_58" data-name="Path 58" d="M-262.568,656.8v-1.445h3.732v3.416a4.685,4.685,0,0,1-1.576.927,5.735,5.735,0,0,1-2.091.4,4.688,4.688,0,0,1-2.345-.565,3.589,3.589,0,0,1-1.5-1.614,5.214,5.214,0,0,1-.5-2.284,4.934,4.934,0,0,1,.561-2.38,3.785,3.785,0,0,1,1.644-1.6,4.434,4.434,0,0,1,2.053-.427,4.1,4.1,0,0,1,2.495.67,3.025,3.025,0,0,1,1.155,1.851l-1.72.322a1.818,1.818,0,0,0-.681-1,2.06,2.06,0,0,0-1.249-.366,2.345,2.345,0,0,0-1.8.719,3.03,3.03,0,0,0-.67,2.135,3.356,3.356,0,0,0,.678,2.29,2.265,2.265,0,0,0,1.779.764,2.986,2.986,0,0,0,1.091-.214,3.761,3.761,0,0,0,.938-.518V656.8Z" transform="translate(421.332 -651.227)" fill="#3498db"/>
    <path id="Path_59" data-name="Path 59" d="M-238.006,660.116v-8.575h6.358v1.451h-4.627v1.9h4.3v1.445h-4.3v2.334h4.79v1.445Z" transform="translate(405.932 -651.395)" fill="#3498db"/>
    <path id="Path_60" data-name="Path 60" d="M-212.7,660.116v-8.575h2.591l1.556,5.849,1.538-5.849h2.6v8.575h-1.608v-6.75l-1.7,6.75h-1.667l-1.7-6.75v6.75Z" transform="translate(392.421 -651.395)" fill="#3498db"/>
    <path id="Path_61" data-name="Path 61" d="M-183.019,660.116v-8.575h6.359v1.451h-4.627v1.9h4.3v1.445h-4.3v2.334h4.79v1.445Z" transform="translate(376.58 -651.395)" fill="#3498db"/>
    <path id="Path_62" data-name="Path 62" d="M-157.62,660.116v-8.575h1.685l3.51,5.726v-5.726h1.608v8.575h-1.737l-3.457-5.592v5.592Z" transform="translate(363.022 -651.395)" fill="#3498db"/>
    <path id="Path_63" data-name="Path 63" d="M-129.651,660.116v-7.124H-132.2v-1.451h6.814v1.451h-2.538v7.124Z" transform="translate(349.451 -651.395)" fill="#3498db"/>
  </g>
</svg>
