<svg xmlns="http://www.w3.org/2000/svg" width="61.281" height="49.796" viewBox="0 0 61.281 49.796">
  <g id="Group_196" data-name="Group 196" transform="translate(-327.188 -309.52)">
    <path id="Path_73" data-name="Path 73" d="M330.566,353.043q-3.38-5.211-3.378-13.028a32.167,32.167,0,0,1,5.067-17.805q5.067-7.864,15.3-12.69l1.834,3.57a26.816,26.816,0,0,0-10.615,8.155q-4.44,5.55-4.44,11.242a13.16,13.16,0,0,0,.579,4.151,11.494,11.494,0,0,1,7.334-2.606,12.666,12.666,0,0,1,8.975,3.426,12.008,12.008,0,0,1,3.668,9.216,12.316,12.316,0,0,1-1.738,6.466,12.629,12.629,0,0,1-10.9,6.176A13.073,13.073,0,0,1,330.566,353.043Zm33.583,0q-3.378-5.211-3.377-13.028a32.167,32.167,0,0,1,5.067-17.805q5.067-7.864,15.3-12.69l1.833,3.57a26.83,26.83,0,0,0-10.615,8.155q-4.44,5.55-4.44,11.242a13.188,13.188,0,0,0,.579,4.151,11.755,11.755,0,0,1,7.335-2.606,12.618,12.618,0,0,1,9.023,3.426A13.235,13.235,0,0,1,384.8,355.7a12.3,12.3,0,0,1-8.975,3.619A13.074,13.074,0,0,1,364.149,353.043Z" fill="#3498db"/>
  </g>
</svg>
