<svg height="512pt" viewBox="0 0 512 512" width="512pt" xmlns="http://www.w3.org/2000/svg"><path d="m0 22.164062 490.789062 489.789063 21.210938-21.210937-490.789062-489.789063zm0 0"/><path d="m427.140625 0 84.855469 84.859375-42.429688 42.425781-84.855468-84.855468zm0 0"/><path d="m363.5 63.640625 84.859375 84.855469-21.210937 21.210937-84.859376-84.855469zm0 0"/><path d="m367.128906 260.421875c-4.734375-14.207031-1.101562-29.601563 9.488282-40.179687l29.320312-29.320313-84.859375-84.855469-29.316406 29.316406c-10.589844 10.578126-26 14.179688-40.183594 9.492188-14.59375-4.878906-29.738281-4.175781-43.679687.496094l158.730468 158.734375c4.664063-13.933594 5.363282-29.074219.5-43.683594zm0 0"/><path d="m66.511719 275.773438 169.710937 169.710937 72.257813-72.261719-169.703125-169.707031zm169.117187 84.257812-21.210937 21.210938-84.859375-84.855469 21.210937-21.210938zm0 0"/><path d="m13.46875 329.082031c-17.519531 17.550781-17.519531 46.101563.015625 63.648438l106.070313 106.085937c8.773437 8.757813 20.300781 13.136719 31.816406 13.136719 11.527344 0 23.054687-4.378906 31.816406-13.152344l31.824219-31.824219-169.714844-169.710937zm0 0"/></svg>