<?xml version="1.0" encoding="utf-8"?>
<!-- Generator: Adobe Illustrator 23.0.4, SVG Export Plug-In . SVG Version: 6.00 Build 0)  -->
<svg version="1.1" id="Layer_1" xmlns="http://www.w3.org/2000/svg" xmlns:xlink="http://www.w3.org/1999/xlink" x="0px" y="0px"
	 viewBox="0 0 545 545" style="enable-background:new 0 0 545 545;" xml:space="preserve">
<path d="M445.5,283.3c-12.6,13-28.6,22.4-46.5,22.6c-11.3,0.1-26.2,0.7-35.1-7.6c-8.1-7.5-4.8-25.4,8-22.8
	c-19.9-11.8-34.4,6.7-52.4,10.7c-14,3.1-31.7-5.5-34.4-21.4c-2.3-13.3,8.3-26.1,20.9-27.4c7.9-0.8,14.7,0.8,20.6,6.5
	c3,2.9,9.8,11.3,3.7,14.2c10.9-3.3,9.8-14.3,8.4-25.2c-3.1-22.6-22.1-42.1-44.3-42.2c-38-0.2-66.5,19-88.1,50
	c-11.1,15.9-16.7,35.2-28.3,50.8c-17.2,23.2-43.4,30.5-66.9,13.1c-4.3-3.2-8.2-6.7-11.5-10.6c8.1,27,28.1,52.3,55.6,58.6
	c23.7,5.5,53.4-3.2,70.2-22.1c9-10.1,12.9-17.6,25.6-21.2c-6.7,0.6-6.3,16.1-4.4,21c4.3,11.7,19.4,18.1,30.4,19.8
	c15.9,2.4,24.2-5,34.6-15.6c8.3-8.6,19.8-20.4,32.6-14.9c-3.1-0.2-4.8,2.2-5.4,5.2c-1.2,5.7,3.8,10,8,12.3c8,4.3,25,6.1,33.6,3.9
	c9.9-2.6,19.8-6.8,27.9-12.8C425.9,314.8,445.5,283.3,445.5,283.3z"/>
</svg>
