<svg id="Capa_1" enable-background="new 0 0 512 512" height="512" viewBox="0 0 512 512" width="512" xmlns="http://www.w3.org/2000/svg"><path d="m260.012 122.538c-73.615 0-133.505 59.89-133.505 133.505 0 4.145 3.36 7.505 7.505 7.505s7.505-3.36 7.505-7.505c0-65.339 53.157-118.496 118.496-118.496 4.145 0 7.505-3.36 7.505-7.505-.001-4.143-3.361-7.504-7.506-7.504z"/><path d="m260.012 153.855c-56.347 0-102.189 45.842-102.189 102.189 0 4.145 3.36 7.505 7.505 7.505s7.505-3.36 7.505-7.505c0-48.071 39.108-87.179 87.179-87.179 4.145 0 7.505-3.36 7.505-7.505s-3.36-7.505-7.505-7.505z"/><path d="m260.012 281.31c13.932 0 25.266-11.334 25.266-25.266s-11.334-25.266-25.266-25.266-25.266 11.334-25.266 25.266c0 13.931 11.335 25.266 25.266 25.266zm0-35.523c5.656 0 10.256 4.601 10.256 10.256s-4.601 10.256-10.256 10.256c-5.656 0-10.256-4.601-10.256-10.256s4.6-10.256 10.256-10.256z"/><path d="m499.142 332.961c-1.768-12.772-6.815-24.293-14.151-33.861 5.998-9.285 8.543-20.471 7.009-31.551-1.7-12.28-8.08-23.162-17.966-30.644-9.886-7.481-22.095-10.665-34.371-8.965-.4.055-.797.132-1.195.197-12.518-80.365-78.21-143.362-159.85-151.754-10.361-31.468-41.8-52.428-75.147-49.306-7.479.699-14.703 2.521-21.53 5.423-4.288-13.74-14.621-24.67-28.322-29.703-22.337-8.205-47.778 2.218-57.923 23.724-3.906 8.279-5.281 17.32-4.017 26.279-19.727 15.854-29.774 40.981-26.295 66.111.521 3.767 1.342 7.495 2.448 11.129-21.982 5.136-40.315 20.232-49.536 41.017-7.186 16.199-8.089 34.483-2.542 51.485 5.519 16.917 16.932 31.118 32.138 39.988 3.793 1.984 7.215 1.084 10.264-2.701 2.088-3.58.878-8.175-2.701-10.264-24.754-14.439-35.05-46.251-23.44-72.422 7.739-17.444 23.582-29.83 42.38-33.132 3.374-.593 6.289-2.633 7.995-5.596 1.701-2.955 2.002-6.486.825-9.691-1.406-3.826-2.404-7.82-2.965-11.872-2.833-20.463 5.668-40.928 22.186-53.409 3.492-2.64 5.156-6.972 4.342-11.303-1.225-6.518-.364-13.162 2.492-19.216 6.859-14.541 24.064-21.588 39.173-16.039 10.214 3.752 17.663 12.346 19.927 22.989.739 3.472 2.998 6.351 6.199 7.898 3.245 1.569 6.962 1.547 10.204-.061 6.279-3.116 13.04-5.031 20.094-5.691 24.368-2.274 47.455 11.681 57.315 33.436-.724-.009-1.445-.028-2.17-.028-99.591 0-180.613 81.023-180.613 180.613 0 30.011 7.367 58.33 20.373 83.26-21.746 16.673-32.477 44.637-26.913 71.714 6.485 31.562 33.109 54.989 65.044 57.467 11.478 26.647 37.619 43.518 66.121 43.518 3.296 0 6.626-.226 9.966-.688 21.368-2.958 39.996-15.098 51.356-33.402 5.593.54 11.256.423 16.851-.351 31.993-4.43 57.091-29.599 61.52-61.44 11.719-6.136 22.803-13.586 33.042-22.272 2.32 2.309 4.8 4.486 7.455 6.495 14.438 10.925 35.331 16.428 53.397 13.926 19.077-2.641 35.983-12.553 47.605-27.91s16.567-34.32 13.926-53.397zm-57.423-90.153c8.312-1.148 16.568 1.003 23.257 6.065s11.006 12.425 12.157 20.734c.867 6.27-.196 12.591-2.94 18.169-9.69-8.168-21.49-13.78-34.266-15.983.451-5.229.698-10.499.698-15.75 0-4.364-.165-8.69-.471-12.977.52-.098 1.041-.185 1.565-.258zm-161.579 219.882c-4.851.673-9.765.721-14.606.144-4.932-.59-9.754 1.791-12.273 6.058-8.925 15.109-23.99 25.151-41.329 27.551-25.93 3.588-50.89-10.817-60.719-35.032-1.818-4.475-6.102-7.541-10.917-7.81-25.83-1.444-47.515-20.198-52.735-45.605-4.27-20.778 3.597-42.224 19.785-55.55 32.045 50.567 88.497 84.209 152.665 84.209 23.051 0 45.577-4.364 66.543-12.67-6.696 20.374-24.516 35.673-46.414 38.705zm193.108-85.39c-9.202 12.16-22.589 20.009-37.694 22.1-15.106 2.092-30.12-1.825-42.281-11.027-12.159-9.203-20.008-22.589-22.1-37.694-2.661-19.221 4.519-38.294 19.206-51.021 3.133-2.714 3.472-7.453.757-10.586-2.715-3.134-7.454-3.471-10.586-.757-18.542 16.066-27.606 40.149-24.245 64.423 1.48 10.688 5.244 20.693 10.968 29.471-12.639 10.759-26.687 19.461-41.676 25.926v-149.71c0-36.164-29.422-65.585-65.585-65.585s-65.585 29.421-65.585 65.585v68.788c0 4.145 3.36 7.505 7.505 7.505s7.505-3.36 7.505-7.505v-68.788c0-27.888 22.688-50.576 50.576-50.576s50.576 22.688 50.576 50.576v155.337c-16.184 5.182-33.217 7.885-50.576 7.885-17.632 0-34.625-2.781-50.576-7.908v-51.722c0-4.145-3.36-7.505-7.505-7.505s-7.505 3.36-7.505 7.505v46.076c-58.783-25.454-100.018-84.023-100.018-152.049 0-91.314 74.29-165.603 165.603-165.603s165.603 74.29 165.603 165.603c0 4.922-.233 9.863-.665 14.761-2.357.092-4.73.296-7.114.626-1.005.139-2.003.298-2.993.478-4.078.739-6.785 4.645-6.045 8.723s4.644 6.784 8.724 6.045c.783-.142 1.573-.268 2.371-.378 15.105-2.092 30.12 1.824 42.281 11.027 12.159 9.203 20.008 22.589 22.1 37.694s-1.824 30.12-11.026 42.28z"/></svg>